# xmcd
#
# Track frame offsets:
#	150
#	13365
#	29905
#	40177
#	53440
#	64062
#	77882
#	91152
#	106217
#	117427
#	128385
#	139025
#	153760
#	170135
#	182190
#	195412
#	210292
#	220522
#	237390
#	250180
#
# Disc length: 3499
#
# Revision: 1
# Processed by: cddbd v1.5.1PL0 Copyright (c) Steve Scherf et al.
# Submitted via: ExactAudioCopy v0.90b2
# Normalized: r0:DSETVAR1
#
DISCID=0c0da914
DTITLE=Various Artist - Country Lovesongs
DYEAR=2002
DGENRE=Country
TTITLE0=Tammy Wynette - Stand By Your Man
TTITLE1=Kathy Mattea - Someone Is Falling
TTITLE2=The Bellamy Brothers - Sugar Daddy
TTITLE3=Freddie Fender - Before The Next Teardrop Falls
TTITLE4=Kenny Rogers - Sche Even Woke Me Up To Say Goodbye
TTITLE5=Willie Nelson - Home Is Where You´re Happy
TTITLE6=Lynn Anderson - Top Of The World
TTITLE7=Jimmy Lawton - A Change Of Heart
TTITLE8=Patsy Cline - Hungry For Your Love
TTITLE9=George Jones - I´ll Share My World With You
TTITLE10=Johnny Cash - Cold Cold Heart
TTITLE11=George Hug - Enchanted
TTITLE12=Ed Bruce and Lynn Anderson - Fools For Each Other
TTITLE13=Nitty Gritty Dirt Band - High Horse
TTITLE14=Fredie Weller - She Loves Me Right Of My Mind
TTITLE15=Jeannie C.Riley - Harper Valley P.T.A.
TTITLE16=Margo - Runaway Heart
TTITLE17=Jimmy Lawton - Where Is The Love
TTITLE18=Bobby Bare - Tender Years
TTITLE19=Gene Watson - No One Will Ever Know
EXTD=
EXTT0=
EXTT1=
EXTT2=
EXTT3=
EXTT4=
EXTT5=
EXTT6=
EXTT7=
EXTT8=
EXTT9=
EXTT10=
EXTT11=
EXTT12=
EXTT13=
EXTT14=
EXTT15=
EXTT16=
EXTT17=
EXTT18=
EXTT19=
PLAYORDER=
